<svg width="50" height="50" viewBox="0 0 50 50" fill="none" xmlns="http://www.w3.org/2000/svg">
<g clip-path="url(#clip0_3_84)">
<path fill-rule="evenodd" clip-rule="evenodd" d="M21.875 4.16675C19.0513 4.16699 16.2685 4.84251 13.7589 6.13694C11.2493 7.43138 9.08565 9.3072 7.44845 11.6079C5.81125 13.9086 4.74798 16.5675 4.34735 19.3627C3.94672 22.1579 4.22035 25.0084 5.14541 27.6763C6.07047 30.3442 7.62014 32.7523 9.66512 34.6995C11.7101 36.6467 14.1911 38.0767 16.9011 38.8701C19.6111 39.6635 22.4716 39.7973 25.2438 39.2603C28.0161 38.7234 30.6197 37.5312 32.8376 35.7834L40.4459 43.3917C40.8388 43.7712 41.3651 43.9812 41.9113 43.9765C42.4576 43.9717 42.9801 43.7526 43.3664 43.3664C43.7526 42.9801 43.9717 42.4576 43.9765 41.9113C43.9812 41.3651 43.7712 40.8388 43.3917 40.4459L35.7834 32.8376C37.8417 30.2264 39.1233 27.0884 39.4815 23.7828C39.8397 20.4773 39.2601 17.1376 37.8089 14.1461C36.3577 11.1546 34.0936 8.63207 31.2757 6.86723C28.4578 5.10239 25.2 4.16652 21.875 4.16675ZM8.33338 21.8751C8.33338 18.2836 9.76008 14.8392 12.2996 12.2997C14.8392 9.76012 18.2836 8.33341 21.875 8.33341C25.4665 8.33341 28.9109 9.76012 31.4505 12.2997C33.99 14.8392 35.4167 18.2836 35.4167 21.8751C35.4167 25.4666 33.99 28.9109 31.4505 31.4505C28.9109 33.99 25.4665 35.4167 21.875 35.4167C18.2836 35.4167 14.8392 33.99 12.2996 31.4505C9.76008 28.9109 8.33338 25.4666 8.33338 21.8751Z" fill="white"/>
</g>
<defs>
<clipPath id="clip0_3_84">
<rect width="50" height="50" fill="white"/>
</clipPath>
</defs>
</svg>
