<svg width="30" height="30" viewBox="0 0 30 30" fill="none" xmlns="http://www.w3.org/2000/svg">
<g clip-path="url(#clip0_4_182)">
<path d="M25.2937 7.10749C25.8337 5.61374 24.3862 4.16624 22.8924 4.70749L4.63618 11.31C3.13743 11.8525 2.95618 13.8975 4.33493 14.6962L10.1624 18.07L15.3662 12.8662C15.6019 12.6385 15.9177 12.5125 16.2454 12.5154C16.5732 12.5182 16.8867 12.6497 17.1184 12.8815C17.3502 13.1132 17.4817 13.4267 17.4845 13.7545C17.4874 14.0822 17.3614 14.398 17.1337 14.6337L11.9299 19.8375L15.3049 25.665C16.1024 27.0437 18.1474 26.8612 18.6899 25.3637L25.2937 7.10749Z" fill="white"/>
</g>
<defs>
<clipPath id="clip0_4_182">
<rect width="30" height="30" fill="white"/>
</clipPath>
</defs>
</svg>
