<svg width="30" height="30" viewBox="0 0 30 30" fill="none" xmlns="http://www.w3.org/2000/svg">
<g clip-path="url(#clip0_4_115)">
<path d="M25.5084 20.4333C24.1694 18.9825 22.5444 17.8247 20.7359 17.0328C18.9273 16.2409 16.9744 15.832 15.0001 15.832C13.0258 15.832 11.0728 16.2409 9.2643 17.0328C7.45576 17.8247 5.83079 18.9825 4.49175 20.4333C4.28501 20.6619 4.16937 20.9584 4.16675 21.2667V26.2667C4.17113 26.5953 4.30476 26.909 4.53871 27.1398C4.77265 27.3706 5.08809 27.5 5.41675 27.5H24.5834C24.9149 27.5 25.2329 27.3683 25.4673 27.1339C25.7017 26.8995 25.8334 26.5815 25.8334 26.25V21.25C25.8268 20.9476 25.7114 20.6576 25.5084 20.4333Z" fill="white"/>
<path d="M14.9999 14.1666C16.3386 14.1666 17.6365 13.7061 18.6759 12.8625C19.7153 12.0188 20.4329 10.8434 20.7083 9.53331C19.9576 8.83288 19.3938 7.95613 19.0678 6.98258C18.7418 6.00904 18.6641 4.96951 18.8416 3.95831C18.1332 3.33356 17.2837 2.89017 16.366 2.66627C15.4484 2.44236 14.4902 2.44463 13.5736 2.67288C12.6571 2.90113 11.8096 3.34854 11.1042 3.97664C10.3988 4.60474 9.85638 5.39475 9.5237 6.27877C9.19102 7.16278 9.07799 8.11436 9.19431 9.05172C9.31063 9.98907 9.65283 10.8842 10.1915 11.66C10.7302 12.4359 11.4492 13.0694 12.2868 13.506C13.1243 13.9426 14.0554 14.1693 14.9999 14.1666Z" fill="white"/>
<path d="M24.9999 9.16659C27.3011 9.16659 29.1666 7.30111 29.1666 4.99992C29.1666 2.69873 27.3011 0.833252 24.9999 0.833252C22.6987 0.833252 20.8333 2.69873 20.8333 4.99992C20.8333 7.30111 22.6987 9.16659 24.9999 9.16659Z" fill="white"/>
</g>
<defs>
<clipPath id="clip0_4_115">
<rect width="30" height="30" fill="white"/>
</clipPath>
</defs>
</svg>
