<svg width="30" height="30" viewBox="0 0 30 30" fill="none" xmlns="http://www.w3.org/2000/svg">
<path d="M12.475 19.375H13.725V15.625H17.475V14.375H13.725V10.625H12.475V14.375H8.72504V15.625H12.475V19.375ZM6.37129 23.75C5.79629 23.75 5.31587 23.5575 4.93004 23.1725C4.54421 22.7875 4.35171 22.3071 4.35254 21.7313V8.26875C4.35254 7.69375 4.54504 7.21375 4.93004 6.82875C5.31504 6.44292 5.79504 6.25 6.37004 6.25H19.8325C20.4075 6.25 20.8875 6.44292 21.2725 6.82875C21.6575 7.21458 21.8505 7.69458 21.8513 8.26875V14.0863L25.6488 10.2887V19.7113L21.8513 15.9137V21.7313C21.8513 22.3062 21.6584 22.7863 21.2725 23.1713C20.8875 23.5571 20.4071 23.75 19.8313 23.75H6.37129Z" fill="white"/>
</svg>
