<svg width="50" height="50" viewBox="0 0 50 50" fill="none" xmlns="http://www.w3.org/2000/svg">
<path d="M24.9999 35.4166C23.8948 35.4166 22.835 34.9776 22.0536 34.1962C21.2722 33.4148 20.8332 32.355 20.8332 31.2499C20.8332 28.9374 22.6874 27.0833 24.9999 27.0833C26.105 27.0833 27.1648 27.5222 27.9462 28.3036C28.7276 29.085 29.1666 30.1448 29.1666 31.2499C29.1666 32.355 28.7276 33.4148 27.9462 34.1962C27.1648 34.9776 26.105 35.4166 24.9999 35.4166ZM37.4999 41.6666V20.8333H12.4999V41.6666H37.4999ZM37.4999 16.6666C38.605 16.6666 39.6648 17.1056 40.4462 17.887C41.2276 18.6684 41.6666 19.7282 41.6666 20.8333V41.6666C41.6666 42.7717 41.2276 43.8315 40.4462 44.6129C39.6648 45.3943 38.605 45.8333 37.4999 45.8333H12.4999C11.3948 45.8333 10.335 45.3943 9.55364 44.6129C8.77224 43.8315 8.33325 42.7717 8.33325 41.6666V20.8333C8.33325 18.5208 10.1874 16.6666 12.4999 16.6666H14.5833V12.4999C14.5833 9.73725 15.6807 7.08773 17.6342 5.13422C19.5877 3.18072 22.2372 2.08325 24.9999 2.08325C26.3678 2.08325 27.7224 2.35269 28.9862 2.87617C30.25 3.39966 31.3983 4.16695 32.3656 5.13422C33.3329 6.1015 34.1002 7.24982 34.6237 8.51363C35.1471 9.77744 35.4166 11.132 35.4166 12.4999V16.6666H37.4999ZM24.9999 6.24992C23.3423 6.24992 21.7526 6.9084 20.5805 8.0805C19.4084 9.2526 18.7499 10.8423 18.7499 12.4999V16.6666H31.2499V12.4999C31.2499 10.8423 30.5914 9.2526 29.4193 8.0805C28.2472 6.9084 26.6575 6.24992 24.9999 6.24992Z" fill="white"/>
</svg>
