 <svg
            width="200"
            height="200"
            viewBox="0 0 200 200"
            fill="none"
            xmlns="http://www.w3.org/2000/svg"
          >
            <circle
              cx="100"
              cy="100"
              r="97.5"
              stroke="white"
              stroke-width="5"
            />
            <path
              fill-rule="evenodd"
              clip-rule="evenodd"
              d="M78.7877 73.3765C78.7877 67.6358 81.0682 62.1303 85.1274 58.0711C89.1866 54.0119 94.6921 51.7314 100.433 51.7314C106.173 51.7314 111.679 54.0119 115.738 58.0711C119.797 62.1303 122.078 67.6358 122.078 73.3765C122.078 79.1171 119.797 84.6226 115.738 88.6818C111.679 92.741 106.173 95.0215 100.433 95.0215C94.6921 95.0215 89.1866 92.741 85.1274 88.6818C81.0682 84.6226 78.7877 79.1171 78.7877 73.3765ZM78.7877 105.844C71.6119 105.844 64.7301 108.695 59.656 113.769C54.582 118.843 51.7314 125.724 51.7314 132.9C51.7314 137.206 53.4418 141.335 56.4862 144.379C59.5306 147.424 63.6597 149.134 67.9652 149.134H132.9C137.206 149.134 141.335 147.424 144.379 144.379C147.424 141.335 149.134 137.206 149.134 132.9C149.134 125.724 146.283 118.843 141.209 113.769C136.135 108.695 129.253 105.844 122.078 105.844H78.7877Z"
              fill="white"
            />
          </svg>